<svg width="49" height="20" viewBox="0 0 49 20" fill="none" xmlns="http://www.w3.org/2000/svg">
  <path
    d="M16.6172 5.03189C17.6625 5.03189 18.8908 5.4239 19.8055 6.05111C19.701 4.22174 19.0476 2.86279 16.9569 2.86279C15.7025 2.86279 14.5265 3.4116 13.5857 4.14334L12.6187 2.02651C13.7947 0.850493 15.5457 0.144882 17.2182 0.144882C21.2951 0.144882 22.6279 3.6468 22.6279 7.14872C22.6279 8.37701 22.3666 12.0096 24.2744 11.9835L23.229 14.2571C22.053 14.231 20.9292 13.7867 20.302 12.7152C19.3612 13.7344 17.9239 14.2571 16.5388 14.2571C13.7425 14.2571 11.9654 12.3755 11.9654 9.55303C11.9654 6.99192 14.1345 5.03189 16.6172 5.03189ZM17.166 7.38393C15.9638 7.38393 14.8139 8.42928 14.8139 9.63143C14.8139 10.9381 15.8332 11.8267 17.166 11.8267C18.1329 11.8267 19.2567 11.3563 19.8839 10.6245L19.8316 8.32474C19.2044 7.69753 18.0545 7.38393 17.166 7.38393Z"
    fill="white" />
  <path d="M31.9225 0.615287H34.9802L30.6681 14.1787H27.7672L23.5597 0.615287H26.5128L29.2307 9.81436L31.9225 0.615287Z"
    fill="white" />
  <path
    d="M10.3187 9.64782C10.3187 12.4721 7.9689 14.2571 5.30276 14.2571C3.74374 14.2571 1.66506 13.8052 0.422363 12.8336L1.52949 10.4838C2.25251 10.9809 4.15044 11.7491 5.03163 11.7491C6.18394 11.7491 7.44923 11.1165 7.44923 9.80598C7.44923 7.54654 1.19057 8.24696 1.19057 4.0444C1.19057 1.17491 3.47261 0 6.07097 0C7.40404 0 9.07603 0.338917 10.0928 1.26529L9.23419 3.2536C8.55635 2.71133 7.24588 2.34982 6.3647 2.34982C5.32535 2.34982 3.9245 2.77911 3.9245 4.02181C3.9245 6.23606 10.3187 5.40007 10.3187 9.64782Z"
    fill="white" />
  <path fill-rule="evenodd" clip-rule="evenodd"
    d="M34.9857 19.0657C34.2278 19.0657 32.9472 18.726 32.3462 18.2817L33.3915 15.9819C33.8096 16.2433 34.3062 16.4001 34.8027 16.4001C35.9003 16.4001 36.5014 14.2832 36.6582 13.4208L35.2217 9.2059L36.6617 4.67649L38.1478 9.47462L40.8396 0.615287H43.8973C43.0536 3.0489 42.2603 5.51273 41.4674 7.97552C40.983 9.47978 40.4988 10.9836 40.0033 12.48C39.7681 13.1595 39.5329 13.839 39.2716 14.5184C38.5137 16.4001 37.39 19.0657 34.9857 19.0657Z"
    fill="white" />
  <path
    d="M48.1049 11.7793C48.1049 13.328 46.8495 14.5835 45.3008 14.5835C43.7521 14.5835 42.4966 13.328 42.4966 11.7793C42.4966 10.2306 43.7521 8.97516 45.3008 8.97516C46.8495 8.97516 48.1049 10.2306 48.1049 11.7793Z"
    fill="url(#paint0_linear_822_6161)" />
  <defs>
    <linearGradient id="paint0_linear_822_6161" x1="45.3008" y1="8.97516" x2="45.3008" y2="14.5835"
      gradientUnits="userSpaceOnUse">
      <stop stop-color="#9C44FF" />
      <stop offset="1" stop-color="#5E2999" />
    </linearGradient>
  </defs>
</svg>